HIERARCHY
ROOT Hips
{
	OFFSET 0.00000 0.00000 0.00000
	CHANNELS 6 Xposition Yposition Zposition Zrotation Yrotation Xrotation 
	JOINT LHipJoint
	{
		OFFSET 0 0 0
		CHANNELS 3 Zrotation Yrotation Xrotation
		JOINT LeftUpLeg
		{
			OFFSET 1.28858 -1.83292 1.03970
			CHANNELS 3 Zrotation Yrotation Xrotation
			JOINT LeftLeg
			{
				OFFSET 2.47846 -6.80952 0.00000
				CHANNELS 3 Zrotation Yrotation Xrotation
				JOINT LeftFoot
				{
					OFFSET 2.75274 -7.56311 0.00000
					CHANNELS 3 Zrotation Yrotation Xrotation
					JOINT LeftToeBase
					{
						OFFSET 0.12848 -0.35301 1.68223
						CHANNELS 3 Zrotation Yrotation Xrotation
						End Site
						{
							OFFSET 0.00000 -0.00000 0.87311
						}
					}
				}
			}
		}
	}
	JOINT RHipJoint
	{
		OFFSET 0 0 0
		CHANNELS 3 Zrotation Yrotation Xrotation
		JOINT RightUpLeg
		{
			OFFSET -1.31183 -1.83292 1.03970
			CHANNELS 3 Zrotation Yrotation Xrotation
			JOINT RightLeg
			{
				OFFSET -2.44740 -6.72417 0.00000
				CHANNELS 3 Zrotation Yrotation Xrotation
				JOINT RightFoot
				{
					OFFSET -2.67343 -7.34519 0.00000
					CHANNELS 3 Zrotation Yrotation Xrotation
					JOINT RightToeBase
					{
						OFFSET -0.16914 -0.46471 1.77626
						CHANNELS 3 Zrotation Yrotation Xrotation
						End Site
						{
							OFFSET -0.00000 -0.00000 0.92777
						}
					}
				}
			}
		}
	}
	JOINT LowerBack
	{
		OFFSET 0 0 0
		CHANNELS 3 Zrotation Yrotation Xrotation
		JOINT Spine
		{
			OFFSET 0.01249 2.14252 0.03842
			CHANNELS 3 Zrotation Yrotation Xrotation
			JOINT Spine1
			{
				OFFSET -0.02957 2.14199 -0.03751
				CHANNELS 3 Zrotation Yrotation Xrotation
				JOINT Neck
				{
					OFFSET 0 0 0
					CHANNELS 3 Zrotation Yrotation Xrotation
					JOINT Neck1
					{
						OFFSET -0.01678 1.65709 -0.05476
						CHANNELS 3 Zrotation Yrotation Xrotation
						JOINT Head
						{
							OFFSET 0.07912 1.58331 -0.11843
							CHANNELS 3 Zrotation Yrotation Xrotation
							End Site
							{
								OFFSET 0.03298 1.73940 -0.04271
							}
						}
					}
				}
				JOINT LeftShoulder
				{
					OFFSET 0 0 0
					CHANNELS 3 Zrotation Yrotation Xrotation
					JOINT LeftArm
					{
						OFFSET 3.39556 1.16496 0.08673
						CHANNELS 3 Zrotation Yrotation Xrotation
						JOINT LeftForeArm
						{
							OFFSET 5.23910 -0.00000 -0.00000
							CHANNELS 3 Zrotation Yrotation Xrotation
							JOINT LeftHand
							{
								OFFSET 3.31467 -0.00000 0.00000
								CHANNELS 3 Zrotation Yrotation Xrotation
								JOINT LeftFingerBase
								{
									OFFSET 0 0 0
									CHANNELS 3 Zrotation Yrotation Xrotation
									JOINT LeftHandIndex1
									{
										OFFSET 0.96590 -0.00000 0.00000
										CHANNELS 3 Zrotation Yrotation Xrotation
										End Site
										{
											OFFSET 0.77873 -0.00000 0.00000
										}
									}
								}
								JOINT LThumb
								{
									OFFSET 0 0 0
									CHANNELS 3 Zrotation Yrotation Xrotation
									End Site
									{
										OFFSET 0.79062 -0.00000 0.79062
									}
								}
							}
						}
					}
				}
				JOINT RightShoulder
				{
					OFFSET 0 0 0
					CHANNELS 3 Zrotation Yrotation Xrotation
					JOINT RightArm
					{
						OFFSET -3.27193 1.31331 0.33940
						CHANNELS 3 Zrotation Yrotation Xrotation
						JOINT RightForeArm
						{
							OFFSET -5.30252 -0.00000 0.00000
							CHANNELS 3 Zrotation Yrotation Xrotation
							JOINT RightHand
							{
								OFFSET -3.67875 -0.00000 0.00000
								CHANNELS 3 Zrotation Yrotation Xrotation
								JOINT RightFingerBase
								{
									OFFSET 0 0 0
									CHANNELS 3 Zrotation Yrotation Xrotation
									JOINT RightHandIndex1
									{
										OFFSET -0.59481 -0.00000 0.00000
										CHANNELS 3 Zrotation Yrotation Xrotation
										End Site
										{
											OFFSET -0.47955 -0.00000 0.00000
										}
									}
								}
								JOINT RThumb
								{
									OFFSET 0 0 0
									CHANNELS 3 Zrotation Yrotation Xrotation
									End Site
									{
										OFFSET -0.48687 -0.00000 0.48687
									}
								}
							}
						}
					}
				}
			}
		}
	}
}
MOTION
Frames: 14
Frame Time: .0083333
9.1076 7.5152 6.0644 -178.9610 -3.2502 2.9728 0.0000 0.0000 0.0000 47.2606 3.5599 -48.8044 0.1534 2.5234 6.9545 3.0253 -10.8766 -31.3947 7.0600 15.3822 49.1009 0.0000 0.0000 0.0000 -55.3245 9.6887 -50.3348 -0.0204 -0.9214 2.5326 -4.1739 -20.4034 -49.0577 -2.0442 -8.9575 25.6624 0.2486 0.7715 31.0459 -2.4843 -0.4776 19.5273 -2.7893 -1.8114 5.1485 -1.5841 -2.1150 -10.1120 -3.2242 -0.9800 30.4792 -0.8865 -0.2494 11.5874 -0.0000 -0.0000 0.0000 46.5711 -62.5856 -99.7314 128.5374 -53.5686 -92.6534 -0.0000 -0.0000 13.0779 94.6948 31.1221 99.0281 -7.1250 0.0000 -0.0000 43.5995 -58.3493 -61.8702 -0.0000 -0.0000 0.0000 -36.4222 71.6272 -100.0857 -133.4529 51.5043 -96.5566 0.0000 0.0000 17.7834 -85.9902 -48.1941 84.6277 7.1250 -0.0000 -0.0000 -156.7787 63.1483 -169.4812
9.1043 7.2510 5.7872 -179.0350 -3.7035 5.0666 0.0000 0.0000 0.0000 46.5961 4.8436 -48.9028 0.1999 2.8787 7.9413 2.8212 -10.1488 -30.2824 6.8858 15.2349 48.4410 0.0000 0.0000 0.0000 -54.3802 8.6858 -50.8804 -0.0317 -1.1489 3.1586 -3.4995 -20.3702 -46.5156 -2.0292 -8.9266 25.5659 0.1114 0.9426 31.2497 -2.5318 -0.4541 19.6291 -2.7807 -1.8904 5.1862 -2.0927 -2.1123 -10.4397 -2.7284 -1.0199 29.8195 -0.6263 -0.3110 11.4054 -0.0000 -0.0000 0.0000 47.7888 -61.6694 -101.3981 128.3144 -53.6531 -92.4739 -0.0000 -0.0000 12.8590 94.9420 31.1588 99.4875 -7.1250 0.0000 -0.0000 43.9818 -58.6627 -62.2848 -0.0000 -0.0000 0.0000 -39.7900 71.3313 -103.5962 -132.8583 51.7756 -96.0903 0.0000 0.0000 17.9889 -84.2793 -48.1968 82.3460 7.1250 -0.0000 -0.0000 -155.7446 64.5444 -168.1957
9.1012 6.9777 5.5196 -179.0830 -4.2371 7.3727 0.0000 0.0000 0.0000 45.5996 6.6087 -49.3320 0.2663 3.3195 9.1695 2.5150 -9.7520 -28.5412 6.8755 15.2262 48.4020 0.0000 0.0000 0.0000 -53.9035 7.9634 -51.4437 -0.0435 -1.3458 3.7007 -3.2837 -19.2671 -44.8435 -2.5758 -9.9745 28.8941 -0.1341 1.1499 31.2554 -2.6176 -0.3988 19.6446 -2.7598 -1.9407 5.2033 -2.7260 -2.1438 -10.9244 -2.0382 -1.1281 29.3231 -0.2864 -0.3888 11.3235 -0.0000 -0.0000 0.0000 48.7372 -60.8690 -102.7445 127.9402 -53.7932 -92.1722 -0.0000 -0.0000 13.2148 95.3584 30.6636 100.4211 -7.1250 0.0000 -0.0000 45.3018 -59.0606 -64.0358 -0.0000 -0.0000 0.0000 -42.4313 71.0669 -106.3155 -132.6411 51.8732 -95.9195 0.0000 0.0000 17.9019 -82.3368 -47.5611 79.6674 7.1250 -0.0000 -0.0000 -153.2974 66.1845 -165.9220
9.1055 6.6943 5.2614 -179.2320 -4.4464 9.7724 0.0000 0.0000 0.0000 44.6187 8.2527 -50.0706 0.3460 3.7793 10.4566 2.2041 -8.3121 -26.6865 6.9249 15.2683 48.5898 0.0000 0.0000 0.0000 -53.8197 7.5477 -51.4701 -0.0567 -1.5372 4.2283 -2.9244 -19.6989 -43.6944 -2.1476 -9.1670 26.3190 -0.2858 1.2433 31.1559 -2.6433 -0.4571 19.6553 -2.6997 -2.0358 5.2507 -2.5737 -2.0743 -11.8813 -2.1090 -1.0321 29.1178 -0.3410 -0.3813 11.4354 0.0000 0.0000 0.0000 49.7449 -60.1736 -104.0577 127.5361 -53.9421 -91.8459 -0.0000 -0.0000 13.6447 95.2036 30.2541 100.2459 -7.1250 0.0000 -0.0000 45.5036 -58.7777 -64.4837 0.0000 0.0000 0.0000 -44.2135 70.6156 -108.3952 -132.6201 51.8825 -95.9030 0.0000 0.0000 17.3851 -80.2495 -47.2122 76.8213 7.1250 -0.0000 -0.0000 -151.0437 67.9103 -163.5264
9.1041 6.4025 5.0005 -179.5410 -4.5994 12.0109 0.0000 0.0000 0.0000 44.1082 9.3163 -50.3995 0.4217 4.1679 11.5495 2.0469 -6.9035 -25.7513 6.8481 15.2027 48.2976 0.0000 0.0000 0.0000 -52.3418 6.3463 -51.9804 -0.0833 -1.8615 5.1231 -2.2887 -19.5371 -40.7867 -2.2856 -9.4372 27.1727 -0.1931 1.2805 31.3294 -2.6887 -0.5538 19.7017 -2.7798 -2.1464 5.2319 -2.3676 -1.9565 -12.8683 -2.1227 -0.9063 28.8524 -0.3798 -0.3511 11.5300 0.0000 -0.0000 0.0000 51.0104 -59.4212 -105.4178 127.1480 -54.0829 -91.5318 -0.0000 -0.0000 13.5798 94.5410 30.1979 98.9730 -7.1250 0.0000 -0.0000 44.3708 -57.9340 -63.2272 0.0000 -0.0000 0.0000 -46.4688 70.2619 -110.8640 -132.3239 52.0141 -95.6698 0.0000 0.0000 17.1719 -78.6806 -47.1375 74.7255 7.1250 -0.0000 -0.0000 -149.6181 69.1653 -161.8170
9.1087 6.1045 4.7495 -179.7130 -4.5578 14.3119 0.0000 0.0000 0.0000 43.3681 10.3080 -50.9391 0.5113 4.5835 12.7243 1.9137 -6.2566 -24.9147 6.8213 15.1795 48.1951 0.0000 0.0000 0.0000 -51.6329 5.5031 -52.0212 -0.1035 -2.0748 5.7125 -2.1413 -18.5495 -39.2509 -2.6863 -10.1691 29.5261 -0.1906 1.3002 31.4199 -2.6879 -0.6914 19.7752 -2.7565 -2.2873 5.2746 -2.7180 -1.9443 -13.5748 -1.6116 -0.9596 28.3968 -0.1504 -0.3940 11.5030 0.0000 -0.0000 0.0000 52.1965 -58.7031 -106.6622 126.8231 -54.1991 -91.2685 -0.0000 -0.0000 13.2988 93.4782 30.1278 96.9046 -7.1250 0.0000 -0.0000 42.6208 -56.5532 -61.2390 0.0000 -0.0000 0.0000 -48.8065 69.8244 -113.1866 -131.8598 52.2173 -95.3035 0.0000 0.0000 16.8595 -78.0998 -46.7911 73.8737 7.1250 -0.0000 -0.0000 -148.3019 69.6778 -160.6200
9.1001 5.7957 4.5107 -180.6830 -4.3269 17.0726 0.0000 0.0000 0.0000 43.1431 11.9340 -52.1031 0.6403 5.1194 14.2493 1.7162 -5.6554 -23.5952 6.8112 15.1708 48.1565 0.0000 0.0000 0.0000 -49.7922 4.3458 -52.4645 -0.1419 -2.4275 6.6888 -1.7185 -18.4685 -37.0782 -2.3372 -9.5357 27.4860 -1.0983 -2.1844 31.1537 -3.9693 -0.6313 19.8822 -3.2412 2.0281 5.5053 -2.5830 -2.0337 -15.3100 -1.4290 -1.2228 27.6444 -0.1715 -0.5670 11.5630 -0.0000 -0.0000 0.0000 54.3166 -58.1314 -108.9728 126.9165 -54.1659 -91.3443 -0.0000 -0.0000 12.9198 91.8769 30.0436 93.7449 -7.1250 0.0000 -0.0000 40.1643 -54.4135 -58.3520 -0.0000 -0.0000 0.0000 -50.6113 68.2986 -114.9033 -131.7225 52.2767 -95.1949 0.0000 0.0000 16.2670 -77.3237 -46.1126 72.6673 7.1250 -0.0000 -0.0000 -145.8916 70.3930 -158.5083
9.0954 5.4878 4.2726 -181.9910 -3.8156 20.0803 0.0000 0.0000 0.0000 43.0817 13.8627 -53.7975 0.8126 5.7526 16.0682 1.4625 -4.4465 -21.8448 6.4861 14.8835 46.9030 0.0000 0.0000 0.0000 -47.5195 3.1024 -53.1901 -0.1937 -2.8346 7.8185 -1.2322 -18.7938 -34.7772 -2.1521 -9.1759 26.3472 0.4075 -2.4266 30.8494 -3.8346 -0.4360 19.9268 -3.9422 2.2967 5.6437 -2.1573 -2.1132 -17.0805 -1.0091 -1.6119 27.2391 -0.1729 -0.7117 11.7611 -0.0000 -0.0000 0.0000 56.8958 -58.3424 -111.1570 126.9122 -54.1674 -91.3407 -0.0000 -0.0000 12.6333 91.2383 30.0458 92.4719 -7.1250 0.0000 -0.0000 39.2182 -53.5540 -57.1938 -0.0000 -0.0000 0.0000 -51.6007 66.6671 -115.5417 -132.0739 52.1241 -95.4726 0.0000 0.0000 15.5192 -75.9674 -45.7969 70.7793 7.1250 -0.0000 -0.0000 -143.6268 71.4955 -156.1159
9.1008 5.1943 4.0082 -181.0340 -4.2903 22.5812 0.0000 0.0000 0.0000 41.1736 14.6134 -54.5420 0.9644 6.2528 17.5198 1.3393 -3.8977 -20.9445 6.6108 14.9952 47.3863 0.0000 0.0000 0.0000 -46.8378 0.7563 -54.8709 -0.3166 -3.6168 10.0010 -0.5471 -18.8005 -30.6091 -1.9493 -8.7596 25.0462 -0.9443 -2.0060 32.4963 -3.9095 -0.0933 18.9407 -3.4267 2.3297 3.9781 -2.0031 -2.1366 -19.3443 -0.5430 -1.7758 28.5403 -0.0750 -0.7047 12.7443 -0.0000 -0.0000 0.0000 58.2077 -59.7961 -111.9537 127.1655 -54.0767 -91.5460 -0.0000 -0.0000 11.8480 91.4863 30.2545 92.9479 -7.1250 0.0000 -0.0000 39.3987 -53.9601 -57.3288 -0.0000 -0.0000 0.0000 -49.4355 66.0040 -112.5157 -133.5831 51.4440 -96.6584 0.0000 0.0000 13.9210 -74.3805 -46.0177 68.7671 7.1250 -0.0000 -0.0000 -142.4796 72.6657 -154.3915
9.1145 4.9222 3.7240 -178.0140 -5.7768 24.6742 0.0000 0.0000 0.0000 37.3831 14.4033 -54.7641 1.1019 6.6700 18.7412 1.3428 -4.1687 -20.9329 6.7808 15.1445 48.0404 0.0000 0.0000 0.0000 -48.1779 -2.3805 -57.1194 -0.5273 -4.6532 12.9221 -0.1376 -17.7520 -26.3023 -2.0446 -8.9584 25.6653 -2.1859 2.8534 34.5171 -2.7169 -0.0527 17.9535 -1.7616 -2.2108 2.1543 -1.9252 -1.9862 -18.5978 -0.4300 -1.6915 26.8420 -0.0307 -0.6973 11.9139 -0.0000 -0.0000 0.0000 57.2012 -60.8449 -110.0654 128.3983 -53.6214 -92.5415 -0.0000 -0.0000 9.7596 89.6043 -30.3441 -89.2167 -7.1250 0.0000 -0.0000 36.7435 -51.4467 -53.9696 -0.0000 -0.0000 0.0000 -49.7160 65.1116 -110.5863 -133.1513 51.6427 -96.3203 0.0000 0.0000 13.2791 -72.4315 -45.8651 66.1954 7.1250 -0.0000 -0.0000 -139.6312 74.1305 -151.0936
9.1050 4.6594 3.5197 -179.1260 -5.1142 27.9384 0.0000 0.0000 0.0000 37.1252 16.4047 -57.0371 1.3724 7.4137 20.9470 1.1134 -3.5746 -19.0740 6.7640 15.1299 47.9759 0.0000 0.0000 0.0000 -45.5323 -4.5835 -58.6094 -0.7241 -5.4374 15.1605 0.3355 -18.2407 -22.7443 -1.2379 -7.0552 19.8790 -1.1550 2.7749 35.1478 -2.0400 0.1119 16.8632 -1.5843 -1.9776 0.7492 -1.2185 -1.6167 -17.6650 -1.3775 -1.2516 23.9405 -0.4253 -0.6359 10.6159 -0.0000 -0.0000 0.0000 54.6453 -61.4732 -106.5704 129.7933 -53.0785 -93.6607 -0.0000 -0.0000 7.5135 85.7798 -31.0531 -81.8590 -7.1250 0.0000 -0.0000 31.9075 -46.5989 -47.2817 -0.0000 -0.0000 0.0000 -46.9972 64.6441 -106.0796 -133.9830 51.2571 -96.9707 0.0000 0.0000 11.9896 -69.1471 -45.6678 61.9632 7.1250 -0.0000 -0.0000 -134.2224 76.4745 -144.8165
9.1049 4.4131 3.3008 -179.8000 -4.5416 31.0231 0.0000 0.0000 0.0000 36.4806 18.1709 -59.2818 1.6919 8.1924 23.2999 0.9015 -2.9283 -17.1947 6.6464 15.0267 47.5238 0.0000 0.0000 0.0000 -43.5834 -6.5621 -60.2018 -0.9786 -6.2973 17.6496 0.6474 -18.4150 -19.5223 -0.8091 -5.7404 16.0330 -0.9328 2.6694 35.6995 -1.5930 0.0206 15.9260 -1.1641 -1.9421 -0.4595 1.0030 -0.7103 -16.5904 -3.6328 -0.1863 20.8294 -1.4190 -0.2739 9.2942 0.0000 -0.0000 0.0000 49.9563 -61.2180 -100.4844 131.1503 -52.5209 -94.7416 -0.0000 -0.0000 5.3420 81.9259 -29.5256 -73.9411 -7.1250 0.0000 -0.0000 29.1437 -40.3445 -43.4097 0.0000 -0.0000 0.0000 -45.5159 65.1726 -102.8686 -134.2377 51.1365 -97.1692 0.0000 0.0000 10.9341 -65.0331 -45.6631 56.9369 7.1250 -0.0000 -0.0000 -126.7599 79.1571 -136.0250
9.1161 4.1691 3.0899 -179.0170 -4.8982 34.0001 0.0000 0.0000 0.0000 34.4201 19.2786 -60.9504 1.9913 8.8480 25.3211 0.7565 -2.6300 -15.7511 6.4904 14.8873 46.9194 0.0000 0.0000 0.0000 -43.5704 -8.6561 -61.8353 -1.2882 -7.1918 20.2850 0.7854 -18.0366 -16.6912 -0.5508 -4.7543 13.2090 -1.3188 3.2013 36.1244 -1.3502 0.5782 15.0646 -0.8548 -1.5998 -1.5370 1.4132 -0.7714 -14.4383 -4.5610 -0.3468 17.2015 -1.7627 -0.4279 7.6702 0.0000 0.0000 0.0000 48.0975 -62.3361 -96.9735 131.5539 -52.3492 -95.0615 -0.0000 -0.0000 3.1385 78.4266 -29.3868 -67.3476 -7.1250 0.0000 -0.0000 26.4500 -35.5650 -39.0143 0.0000 0.0000 0.0000 -38.4333 65.5373 -93.7064 -135.2244 50.6581 -97.9349 0.0000 0.0000 10.0495 -61.4283 -45.2329 52.5105 7.1250 -0.0000 -0.0000 -115.1549 81.2445 -123.4106
9.1214 3.9288 2.9053 -178.6730 -5.1427 37.0785 0.0000 0.0000 0.0000 32.7703 20.5333 -62.5800 2.3246 9.5118 27.4099 0.5997 -2.3245 -14.0180 6.3369 14.7471 46.3193 0.0000 0.0000 0.0000 -43.3631 -10.3231 -63.1386 -1.5916 -7.9578 22.5860 0.8659 -17.6536 -14.1281 -0.5926 -4.9285 13.7048 -1.3497 3.4778 36.3778 -1.3208 0.9046 14.3898 -0.8978 -1.3730 -2.3530 1.4174 -0.6418 -15.7564 -4.6062 -0.4214 17.6089 -1.8285 -0.6539 8.0380 0.0000 0.0000 0.0000 46.1586 -63.6452 -92.4259 132.0990 -52.1130 -95.4925 -0.0000 -0.0000 1.4201 73.7681 -30.3292 -60.0352 -7.1250 0.0000 -0.0000 22.9813 -30.8185 -33.1069 0.0000 0.0000 0.0000 -32.6253 66.2787 -85.7415 -135.3300 50.6058 -98.0166 0.0000 0.0000 8.8679 -58.1525 -44.1286 48.2625 7.1250 -0.0000 -0.0000 -95.0949 82.4795 -102.6943
